<?xml version="1.0" encoding="utf-8"?>
<!-- Generator: Adobe Illustrator 25.0.1, SVG Export Plug-In . SVG Version: 6.00 Build 0)  -->
<svg version="1.1" id="Layer_1" xmlns="http://www.w3.org/2000/svg" xmlns:xlink="http://www.w3.org/1999/xlink" x="0px" y="0px"
	 viewBox="0 0 182 65" style="enable-background:new 0 0 182 65;" xml:space="preserve"  width="182px" height="65px">
    
<style type="text/css">
	.st0{fill:#005F30;}
	.st1{fill:#DEDC00;}
	.st2{fill:#FFFFFF;}
</style>
<g>
	<g>
		<rect x="0.12" y="0.3" class="st0" width="181.87" height="65"/>
		<path class="st1" d="M172.17,9.05H9.2v47.5h163.71V9.05H172.17z M171.43,10.53c0,1.41,0,43.12,0,44.53c-1.46,0-159.29,0-160.75,0
			c0-1.41,0-43.12,0-44.53C12.14,10.53,169.97,10.53,171.43,10.53z"/>
	</g>
	<path class="st2" d="M90.89,19.16h4.85v0.71c-1.2,0.05-1.98,0.57-2.82,1.39l-2.24,2.22l3.81,5.51c0.38,0.55,0.65,0.74,0.9,0.77
		c0.24,0.03,0.65,0.06,0.98,0.06v0.71h-5.35v-0.71h0.88c0.49,0,0.74-0.05,0.74-0.3c0-0.24-0.2-0.54-0.39-0.82l-2.76-4l-1.84,1.91
		v2.41c0,0.63,0.27,0.8,0.88,0.8h0.87v0.71h-5.21v-0.71h0.87c0.61,0,0.88-0.17,0.88-0.8v-8.35c0-0.63-0.27-0.8-0.88-0.8h-0.87v-0.71
		h5.21v0.71h-0.87c-0.61,0-0.88,0.17-0.88,0.8v4.8l4.16-4.19c0.27-0.27,0.52-0.66,0.52-0.93c0-0.32-0.28-0.49-1.13-0.49h-0.3V19.16z
		"/>
	<path class="st2" d="M105.82,24.84c0,2.28-0.54,5.21-3.39,5.21c-3.24,0-3.42-3.62-3.42-5.21c0-2.28,0.54-5.21,3.39-5.21
		C105.65,19.63,105.82,23.25,105.82,24.84z M107.84,24.84c0-3.04-2.16-5.92-5.43-5.92c-3.65,0-5.4,3.57-5.4,5.92
		c0,3.04,2.16,5.92,5.43,5.92C106.09,30.77,107.84,27.19,107.84,24.84z"/>
	<path class="st2" d="M116.88,19.16h4.44v0.71c-0.77,0.06-1.32,0.21-1.53,0.63c-0.2,0.42-0.3,0.96-0.3,1.8v8.47h-0.63l-6.98-9.65
		h-0.03v6.83c0,1.28,0.16,1.81,1.84,1.87v0.71h-4.46v-0.71c1.4-0.05,1.83-0.58,1.83-1.86v-7.58c-0.35-0.46-0.74-0.52-1.59-0.52
		h-0.24v-0.71h3.24l6.19,8.49h0.03v-5.56c0-1.45-0.16-2.17-1.83-2.22V19.16z"/>
	<path class="st2" d="M129.18,19.16h4.85v0.71c-1.2,0.05-1.99,0.57-2.82,1.39l-2.24,2.22l3.81,5.51c0.38,0.55,0.65,0.74,0.9,0.77
		c0.24,0.03,0.65,0.06,0.98,0.06v0.71h-5.35v-0.71h0.88c0.49,0,0.74-0.05,0.74-0.3c0-0.24-0.2-0.54-0.39-0.82l-2.76-4l-1.84,1.91
		v2.41c0,0.63,0.27,0.8,0.88,0.8h0.87v0.71h-5.21v-0.71h0.87c0.61,0,0.88-0.17,0.88-0.8v-8.35c0-0.63-0.27-0.8-0.88-0.8h-0.87v-0.71
		h5.21v0.71h-0.87c-0.61,0-0.88,0.17-0.88,0.8v4.8l4.16-4.19c0.27-0.27,0.52-0.66,0.52-0.93c0-0.32-0.28-0.49-1.13-0.49h-0.3V19.16z
		"/>
	<path class="st2" d="M142.77,19.16h4.39v0.71c-1.62,0.05-1.78,0.77-1.78,2.22v4.22c0,2.94-1.43,4.46-4.33,4.46
		c-2.36,0-4.44-0.99-4.44-3.31v-6.79c0-0.63-0.27-0.8-0.88-0.8h-0.9v-0.71h5.24v0.71h-0.87c-0.61,0-0.88,0.17-0.88,0.8v5.92
		c0,1.26,0.13,2,0.8,2.6c0.65,0.58,1.34,0.79,2.38,0.79c1.7,0,3.09-1.21,3.09-3.1v-4.79c0-1.45-0.16-2.17-1.83-2.22V19.16z"/>
	<path class="st2" d="M154.89,19.16h4.85v0.71c-1.2,0.05-1.98,0.57-2.82,1.39l-2.24,2.22l3.81,5.51c0.38,0.55,0.65,0.74,0.9,0.77
		c0.24,0.03,0.64,0.06,0.98,0.06v0.71h-5.35v-0.71h0.88c0.49,0,0.74-0.05,0.74-0.3c0-0.24-0.21-0.54-0.39-0.82l-2.75-4l-1.84,1.91
		v2.41c0,0.63,0.27,0.8,0.88,0.8h0.87v0.71h-5.21v-0.71h0.87c0.61,0,0.88-0.17,0.88-0.8v-8.35c0-0.63-0.27-0.8-0.88-0.8h-0.87v-0.71
		h5.21v0.71h-0.87c-0.61,0-0.88,0.17-0.88,0.8v4.8l4.16-4.19c0.27-0.27,0.52-0.66,0.52-0.93c0-0.32-0.28-0.49-1.13-0.49h-0.3V19.16z
		"/>
	<path class="st2" d="M89.6,36.99h3.23v0.52c-1.19,0.04-1.31,0.57-1.31,1.63v3.1c0,2.16-1.05,3.28-3.18,3.28
		c-1.74,0-3.27-0.73-3.27-2.43V38.1c0-0.46-0.2-0.59-0.65-0.59h-0.66v-0.52h3.86v0.52h-0.64c-0.45,0-0.65,0.13-0.65,0.59v4.35
		c0,0.92,0.09,1.47,0.59,1.91c0.47,0.43,0.98,0.58,1.75,0.58c1.25,0,2.27-0.89,2.27-2.28v-3.52c0-1.06-0.12-1.6-1.34-1.63V36.99z"/>
	<path class="st2" d="M98.91,36.99h3.27v0.52c-0.57,0.05-0.97,0.15-1.12,0.46c-0.15,0.31-0.22,0.71-0.22,1.32v6.23h-0.46l-5.13-7.1
		h-0.02v5.03c0,0.94,0.12,1.33,1.35,1.38v0.52h-3.28v-0.52c1.03-0.04,1.34-0.43,1.34-1.37v-5.57c-0.25-0.33-0.54-0.38-1.17-0.38
		h-0.17v-0.52h2.39l4.55,6.24h0.02v-4.09c0-1.06-0.12-1.6-1.34-1.63V36.99z"/>
	<path class="st2" d="M102.89,44.83h0.64c0.45,0,0.65-0.13,0.65-0.59V38.1c0-0.46-0.2-0.59-0.65-0.59h-0.64v-0.52h3.83v0.52h-0.64
		c-0.45,0-0.65,0.13-0.65,0.59v6.14c0,0.46,0.2,0.59,0.65,0.59h0.64v0.52h-3.83V44.83z"/>
	<path class="st2" d="M107.07,36.99h3.6v0.52h-0.59c-0.4,0-0.58,0.11-0.58,0.33c0,0.15,0.08,0.36,0.15,0.53l2.07,5.27l1.73-4.58
		c0.2-0.52,0.24-0.72,0.24-0.95c0-0.54-0.74-0.59-1.18-0.59v-0.52h3.1v0.52c-0.82,0-1.02,0.25-1.34,1.08l-2.67,6.88h-0.46
		l-2.85-7.13c-0.31-0.79-0.37-0.82-1.22-0.82V36.99z"/>
	<path class="st2" d="M115.86,36.99h6.99l0.16,2.99h-0.46c-0.43-2.36-1.01-2.47-3.29-2.47c-0.7,0-0.86,0.05-0.86,0.45v2.77h0.42
		c1.01,0,1.47-0.44,1.54-1.59h0.52v3.8h-0.52c0-1.03-0.42-1.69-1.32-1.69h-0.64v3.13c0,0.41,0.16,0.45,0.86,0.45
		c2.7,0,2.86-0.24,3.47-2.57h0.46l-0.22,3.09h-7.12v-0.52h0.64c0.45,0,0.65-0.13,0.65-0.59V38.1c0-0.46-0.2-0.59-0.65-0.59h-0.64
		V36.99z"/>
	<path class="st2" d="M126.77,38.16c0-0.54,0.14-0.65,0.74-0.65c1.16,0,1.7,0.06,2.03,0.35c0.32,0.29,0.38,0.67,0.38,1.19
		c0,1.18-0.53,1.68-2.26,1.68c-0.28,0-0.57-0.01-0.89-0.02V38.16z M124.22,37.51h0.64c0.45,0,0.65,0.13,0.65,0.59v6.14
		c0,0.46-0.2,0.59-0.65,0.59h-0.64v0.52h3.83v-0.52h-0.64c-0.45,0-0.65-0.13-0.65-0.59v-2.99h0.65c1.41,0,1.75,0.67,1.88,2.23
		c0.14,1.65,0.72,2.04,1.4,2.04c0.95,0,1.45-0.63,1.45-2.02h-0.46c-0.05,0.79-0.15,1.18-0.45,1.18c-0.21,0-0.36-0.13-0.57-0.94
		l-0.27-1.05c-0.23-0.94-0.81-1.47-1.78-1.56v-0.02c1.57-0.07,2.7-0.76,2.7-2.06c0-1.55-1.59-2.06-2.87-2.06h-4.21V37.51z"/>
	<path class="st2" d="M138.07,36.9h0.4l0.14,3h-0.46c-0.34-1.28-1.17-2.56-2.65-2.56c-1.14,0-1.64,0.69-1.64,1.38
		c0,0.58,0.3,1.09,1.39,1.39l1.81,0.5c1.32,0.36,1.95,1.23,1.95,2.44c0,1.38-1.02,2.48-2.84,2.48c-0.95,0-1.78-0.34-2.42-0.89
		l-0.52,0.83h-0.38l-0.05-3.27l0.44-0.05c0.34,1.86,1.48,2.86,2.93,2.86c1.16,0,1.91-0.61,1.91-1.69c0-0.67-0.31-1.12-1.11-1.33
		l-1.87-0.49c-1.36-0.35-2.15-0.97-2.15-2.27c0-1.55,1.04-2.41,2.54-2.41c0.83,0,1.51,0.24,2.13,0.81L138.07,36.9z"/>
	<path class="st2" d="M139.98,44.83h0.64c0.45,0,0.65-0.13,0.65-0.59V38.1c0-0.46-0.2-0.59-0.65-0.59h-0.64v-0.52h3.83v0.52h-0.64
		c-0.45,0-0.65,0.13-0.65,0.59v6.14c0,0.46,0.2,0.59,0.65,0.59h0.64v0.52h-3.83V44.83z"/>
	<path class="st2" d="M146.08,44.83h0.75c0.45,0,0.65-0.13,0.65-0.59v-6.03c0-0.52-0.12-0.7-0.55-0.7c-1.19,0-1.73,0.95-1.99,2.71
		h-0.46l0.18-3.23h6.91l0.19,3.23h-0.46c-0.27-1.76-0.8-2.71-1.99-2.71c-0.44,0-0.56,0.17-0.56,0.7v6.03c0,0.46,0.2,0.59,0.65,0.59
		h0.75v0.52h-4.07V44.83z"/>
	<path class="st2" d="M156.99,36.99h3.27v0.52c-0.88,0.04-1.18,0.37-1.6,1.11l-1.84,3.29v2.2c0,0.61,0.04,0.72,0.7,0.72h0.65v0.52
		h-3.95v-0.52h0.65c0.66,0,0.7-0.1,0.7-0.72v-2.1l-2.37-3.76c-0.37-0.59-0.53-0.74-1.05-0.74h-0.28v-0.52h3.71v0.52h-0.73
		c-0.3,0-0.42,0.07-0.42,0.21c0,0.13,0.02,0.22,0.18,0.48l1.92,3.07l1.33-2.35c0.22-0.39,0.32-0.63,0.32-0.91
		c0-0.37-0.28-0.49-1.18-0.49V36.99z"/>
	<path class="st2" d="M37.2,19.06h11.41v1.67c-2.82,0.11-4.67,1.33-6.63,3.26l-5.26,5.23l8.97,12.97c0.89,1.3,1.52,1.74,2.11,1.82
		c0.56,0.07,1.52,0.15,2.3,0.15v1.67H37.5v-1.67h2.08c1.15,0,1.74-0.11,1.74-0.7c0-0.56-0.48-1.26-0.93-1.93L33.9,32.1l-4.33,4.48
		v5.67c0,1.48,0.63,1.89,2.08,1.89h2.04v1.67H21.42v-1.67h2.04c1.44,0,2.07-0.41,2.07-1.89V22.61c0-1.48-0.63-1.89-2.07-1.89h-2.04
		v-1.67h12.27v1.67h-2.04c-1.44,0-2.08,0.41-2.08,1.89v11.3l9.78-9.86c0.63-0.63,1.22-1.56,1.22-2.19c0-0.74-0.67-1.15-2.67-1.15
		h-0.7V19.06z"/>
	<path class="st2" d="M68.44,19.06h10.34v1.67c-3.82,0.11-4.19,1.82-4.19,5.23v9.93c0,6.93-3.37,10.49-10.19,10.49
		c-5.56,0-10.45-2.33-10.45-7.78V22.61c0-1.48-0.63-1.89-2.08-1.89h-2.11v-1.67H62.1v1.67h-2.04c-1.45,0-2.08,0.41-2.08,1.89v13.93
		c0,2.96,0.3,4.71,1.89,6.11c1.52,1.37,3.15,1.85,5.6,1.85c4,0,7.26-2.85,7.26-7.3V25.95c0-3.41-0.37-5.11-4.3-5.23V19.06z"/>
</g>
</svg>
